# xmcd
#
# Track frame offsets: 
#        183
#        12153
#        22313
#        33330
#        47520
#        59733
#        71158
#        82750
#        93468
#        107233
#        119328
#        130263
#        143128
#        157105
#        167500
#
# Disc length: 2393 seconds
#
# Revision: 1
# Processed by: cddbd v1.5.2PL0 Copyright (c) Steve Scherf et al.
# Submitted via: ExactAudioCopy v0.99pb5
#
DISCID=ce09570f
DTITLE=Ray Charles - Powder
DYEAR=1900
DGENRE=Jazz
TTITLE0=That s why I m feeling blue
TTITLE1=satchel mouth blues
TTITLE2=pogo stick blues
TTITLE3=walking and talking
TTITLE4=honey honey
TTITLE5=she s on the ball
TTITLE6=how long
TTITLE7=sittin on top of the world
TTITLE8=i m gonna drown myself
TTITLE9=cc rider
TTITLE10=i wonder who s kissing her now
TTITLE11=the snow is falling
TTITLE12=baby let me hold your hand
TTITLE13=rocking chair blues
TTITLE14=going down slow
EXTD=
EXTT0=
EXTT1=
EXTT2=
EXTT3=
EXTT4=
EXTT5=
EXTT6=
EXTT7=
EXTT8=
EXTT9=
EXTT10=
EXTT11=
EXTT12=
EXTT13=
EXTT14=
PLAYORDER=
